<svg width="147" height="35" viewBox="0 0 147 35" fill="none" xmlns="http://www.w3.org/2000/svg">
<path d="M48.7581 24.9609H49.4295V28.4666H45.4802V24.9609H46.1516V27.8027H47.131V24.9609H47.7945V27.8027H48.7739L48.7581 24.9609Z" fill="#005CFF"/>
<path d="M53.7177 28.4666H52.9279L51.7115 26.8473V28.4666H51.0322V24.9609H51.7115V26.5073L52.8805 24.9609H53.6703L52.3987 26.6612L53.7177 28.4666Z" fill="#005CFF"/>
<path d="M57.6116 28.0047C57.448 28.1779 57.2513 28.3147 57.0339 28.4066C56.8165 28.4986 56.583 28.5436 56.3478 28.5391C55.8959 28.5082 55.4724 28.3025 55.163 27.9635C54.8535 27.6245 54.6814 27.1776 54.6814 26.7134C54.6814 26.2492 54.8535 25.8023 55.163 25.4633C55.4724 25.1243 55.8959 24.9186 56.3478 24.8877C56.6997 24.8887 57.0434 24.9962 57.3359 25.1968C57.6283 25.3974 57.8564 25.6822 57.9914 26.0152C58.1264 26.3483 58.1624 26.7149 58.0949 27.0688C58.0273 27.4228 57.8591 27.7484 57.6116 28.0047ZM55.5658 27.5352C55.6682 27.6426 55.7913 27.7269 55.9274 27.7827C56.0634 27.8385 56.2093 27.8645 56.3557 27.859C56.5032 27.8624 56.6498 27.8349 56.7865 27.7781C56.9232 27.7213 57.0471 27.6365 57.1507 27.5288C57.2543 27.4212 57.3352 27.2929 57.3887 27.152C57.4421 27.0111 57.4669 26.8604 57.4615 26.7093C57.4615 26.4087 57.345 26.1204 57.1376 25.9079C56.9302 25.6953 56.649 25.5759 56.3557 25.5759C56.0624 25.5759 55.7812 25.6953 55.5738 25.9079C55.3664 26.1204 55.2499 26.4087 55.2499 26.7093C55.2471 26.8579 55.2736 27.0055 55.3279 27.1432C55.3822 27.281 55.4631 27.406 55.5658 27.5109V27.5352Z" fill="#005CFF"/>
<path d="M59.1206 28.4666V27.827C59.2002 27.8456 59.2831 27.8435 59.3618 27.8209C59.4404 27.7982 59.5123 27.7558 59.5708 27.6975C59.6948 27.5009 59.7479 27.266 59.7209 27.0336V24.9609H62.051V28.4666H61.3796V25.6248H60.3923V27.0174C60.3999 27.2752 60.3652 27.5324 60.2896 27.7784C60.2367 27.9595 60.1322 28.1202 59.9895 28.2399C59.8727 28.3343 59.7383 28.4032 59.5945 28.4423C59.4386 28.4748 59.2789 28.483 59.1206 28.4666Z" fill="#005CFF"/>
<path d="M65.8583 28.4666L65.6529 27.8351H64.2944L64.089 28.4666H63.3623L64.555 24.9609H65.3922L66.5928 28.4666H65.8583ZM64.5076 27.1874H65.4475L64.9736 25.7544L64.5076 27.1874Z" fill="#005CFF"/>
<path d="M72.6589 24.9609V28.4666H71.9638V25.6248H70.7554V28.4666H70.084V24.9609H72.6589Z" fill="#005CFF"/>
<path d="M75.5414 24.9604C75.695 24.9559 75.8479 24.9837 75.9905 25.0422C76.1332 25.1007 76.2626 25.1886 76.3708 25.3005C76.4785 25.4103 76.564 25.5409 76.6223 25.6847C76.6806 25.8285 76.7106 25.9827 76.7106 26.1384C76.7106 26.2942 76.6806 26.4484 76.6223 26.5922C76.564 26.736 76.4785 26.8666 76.3708 26.9764C76.2626 27.0883 76.1332 27.1762 75.9905 27.2347C75.8479 27.2932 75.695 27.321 75.5414 27.3165H74.9411V28.4661H74.2698V24.9604H75.5414ZM75.5414 26.6687C75.608 26.6711 75.6743 26.6586 75.7357 26.632C75.7971 26.6055 75.8521 26.5655 75.8969 26.5149C75.9444 26.4646 75.9815 26.405 76.006 26.3396C76.0304 26.2742 76.0417 26.2044 76.039 26.1344C76.0425 25.9933 75.9914 25.8565 75.8969 25.7539C75.8505 25.706 75.795 25.6683 75.7339 25.6433C75.6728 25.6182 75.6072 25.6062 75.5414 25.6081H74.9411V26.7011L75.5414 26.6687Z" fill="#005CFF"/>
<path d="M80.9766 28.0048C80.6849 28.3045 80.301 28.4912 79.8901 28.5333C79.4791 28.5753 79.0667 28.47 78.7231 28.2353C78.3794 28.0006 78.1258 27.651 78.0053 27.2462C77.8849 26.8413 77.9052 26.4061 78.0626 26.0148C78.2201 25.6235 78.5051 25.3003 78.8689 25.1002C79.2328 24.9001 79.6531 24.8355 80.0583 24.9174C80.4634 24.9993 80.8283 25.2227 81.0908 25.5495C81.3533 25.8762 81.4972 26.2862 81.4979 26.7094C81.5033 26.9506 81.4598 27.1903 81.37 27.4133C81.2803 27.6363 81.1463 27.8377 80.9766 28.0048ZM78.9309 27.5352C79.0338 27.6419 79.157 27.7257 79.2929 27.7814C79.4288 27.8371 79.5744 27.8636 79.7207 27.8591C79.8671 27.8645 80.013 27.8386 80.1491 27.7828C80.2851 27.727 80.4082 27.6427 80.5106 27.5352C80.6157 27.4301 80.6986 27.3041 80.7543 27.1648C80.81 27.0256 80.8373 26.8761 80.8344 26.7256C80.8359 26.5753 80.808 26.4263 80.7524 26.2872C80.6968 26.1482 80.6146 26.0219 80.5106 25.916C80.4071 25.8101 80.2838 25.7268 80.148 25.6712C80.0122 25.6155 79.8669 25.5886 79.7207 25.5922C79.5733 25.5887 79.4267 25.6163 79.29 25.673C79.1532 25.7298 79.0293 25.8146 78.9257 25.9223C78.8222 26.03 78.7412 26.1582 78.6877 26.2992C78.6343 26.4401 78.6095 26.5907 78.6149 26.7418C78.6168 27.0309 78.7304 27.3075 78.9309 27.511V27.5352Z" fill="#005CFF"/>
<path d="M84.8937 24.9609V25.6248H83.6221V28.4666H82.9507V24.9609H84.8937Z" fill="#005CFF"/>
<path d="M87.5245 24.9601C87.6778 24.9574 87.8301 24.9861 87.9725 25.0445C88.1149 25.1029 88.2446 25.1898 88.3538 25.3002C88.5657 25.5251 88.6841 25.8255 88.6841 26.1381C88.6841 26.4508 88.5657 26.7512 88.3538 26.9761C88.2446 27.0865 88.1149 27.1734 87.9725 27.2318C87.8301 27.2902 87.6778 27.3188 87.5245 27.3161H86.9163V28.4658H86.2449V24.9601H87.5245ZM87.5245 26.6684C87.5911 26.6708 87.6574 26.6583 87.7187 26.6317C87.7801 26.6052 87.8351 26.5652 87.8799 26.5146C87.9274 26.4643 87.9646 26.4047 87.989 26.3393C88.0134 26.2739 88.0247 26.2041 88.0221 26.1341C88.0256 25.993 87.9744 25.8562 87.8799 25.7535C87.8335 25.7057 87.778 25.668 87.7169 25.643C87.6558 25.6179 87.5903 25.6059 87.5245 25.6078H86.9163V26.7008L87.5245 26.6684Z" fill="#005CFF"/>
<path d="M91.9548 28.4666L91.7494 27.8351H90.3908L90.1855 28.4666H89.4509L90.6515 24.9609H91.4887L92.6893 28.4666H91.9548ZM90.6041 27.1874H91.5361L91.0701 25.7544L90.6041 27.1874Z" fill="#005CFF"/>
<path d="M97.3416 24.9607V28.4664H96.6781V26.1914L95.7145 27.8106H95.6592L94.6956 26.1914V28.4583H94.0242V24.9526H94.7113L95.6987 26.5719L96.6702 24.9526L97.3416 24.9607Z" fill="#005CFF"/>
<path d="M102.302 24.9607V28.4664H101.63V26.1914L100.667 27.8106H100.588L99.6321 26.1914V28.4583H98.9529V24.9526H99.6479L100.627 26.5719L101.607 24.9526L102.302 24.9607Z" fill="#005CFF"/>
<path d="M105.928 28.4666V26.3292L104.459 28.4666H103.945V24.9609H104.617V27.1064L106.086 24.9609H106.599V28.4666H105.928Z" fill="#005CFF"/>
<path d="M109.45 24.9603C109.605 24.9565 109.759 24.9847 109.903 25.0431C110.047 25.1015 110.177 25.189 110.288 25.3003C110.499 25.5252 110.618 25.8257 110.618 26.1383C110.618 26.4509 110.499 26.7514 110.288 26.9763C110.177 27.0876 110.047 27.1751 109.903 27.2335C109.759 27.2919 109.605 27.3201 109.45 27.3163H108.85V28.466H108.179V24.9603H109.45ZM109.45 26.6686C109.518 26.6716 109.586 26.6594 109.649 26.6329C109.711 26.6063 109.768 26.566 109.814 26.5148C109.86 26.4641 109.896 26.4042 109.919 26.3387C109.942 26.2733 109.952 26.2037 109.948 26.1342C109.951 26.0649 109.941 25.9955 109.918 25.9302C109.895 25.8649 109.859 25.8049 109.814 25.7537C109.766 25.7052 109.709 25.6672 109.647 25.6422C109.584 25.6171 109.517 25.6055 109.45 25.608H108.85V26.701L109.45 26.6686Z" fill="#005CFF"/>
<path d="M114.893 28.0047C114.729 28.1779 114.532 28.3147 114.315 28.4066C114.097 28.4986 113.864 28.5436 113.629 28.5391C113.177 28.5082 112.753 28.3025 112.444 27.9635C112.135 27.6245 111.962 27.1776 111.962 26.7134C111.962 26.2492 112.135 25.8023 112.444 25.4633C112.753 25.1243 113.177 24.9186 113.629 24.8877C113.981 24.8887 114.324 24.9962 114.617 25.1968C114.909 25.3974 115.137 25.6822 115.272 26.0152C115.407 26.3483 115.443 26.7149 115.376 27.0688C115.308 27.4228 115.14 27.7484 114.893 28.0047ZM112.847 27.5352C112.949 27.6426 113.072 27.7269 113.208 27.7827C113.344 27.8385 113.49 27.8645 113.637 27.859C113.784 27.8624 113.931 27.8349 114.067 27.7781C114.204 27.7213 114.328 27.6365 114.432 27.5288C114.535 27.4212 114.616 27.2929 114.67 27.152C114.723 27.0111 114.748 26.8604 114.742 26.7093C114.742 26.4087 114.626 26.1204 114.419 25.9079C114.211 25.6953 113.93 25.5759 113.637 25.5759C113.343 25.5759 113.062 25.6953 112.855 25.9079C112.647 26.1204 112.531 26.4087 112.531 26.7093C112.528 26.8579 112.555 27.0055 112.609 27.1432C112.663 27.281 112.744 27.406 112.847 27.5109V27.5352Z" fill="#005CFF"/>
<path d="M118.928 26.6448C119.07 26.7221 119.187 26.8395 119.265 26.9831C119.344 27.1266 119.38 27.2902 119.371 27.4544C119.374 27.5928 119.349 27.7303 119.296 27.8575C119.242 27.9847 119.163 28.0986 119.063 28.1912C118.857 28.3811 118.589 28.4826 118.312 28.4746H116.859V24.9689H118.21C118.48 24.9595 118.743 25.0582 118.944 25.2442C119.043 25.3324 119.121 25.4422 119.173 25.5655C119.225 25.6888 119.249 25.8224 119.244 25.9566C119.251 26.0891 119.225 26.2211 119.17 26.3411C119.115 26.4611 119.032 26.5654 118.928 26.6448ZM118.21 25.6085H117.53V26.4181H118.21C118.258 26.4201 118.307 26.411 118.352 26.3914C118.397 26.3718 118.438 26.3422 118.47 26.3048C118.505 26.2688 118.532 26.2257 118.55 26.1782C118.568 26.1308 118.575 26.0802 118.573 26.0295C118.574 25.9789 118.566 25.9285 118.549 25.8813C118.531 25.834 118.504 25.7908 118.47 25.7542C118.44 25.7117 118.401 25.6766 118.356 25.6514C118.311 25.6262 118.261 25.6115 118.21 25.6085ZM118.312 27.8188C118.418 27.8198 118.52 27.7792 118.597 27.7054C118.67 27.6239 118.709 27.5166 118.707 27.4059C118.708 27.352 118.699 27.2985 118.679 27.2485C118.66 27.1984 118.631 27.1528 118.594 27.1144C118.558 27.0759 118.514 27.0454 118.465 27.0245C118.417 27.0037 118.365 26.9929 118.312 26.9929H117.522V27.8026L118.312 27.8188Z" fill="#005CFF"/>
<path d="M122.989 28.4666L122.783 27.8351H121.425L121.219 28.4666H120.485L121.685 24.9609H122.515L123.715 28.4666H122.989ZM121.638 27.1874H122.578L122.104 25.7544L121.638 27.1874Z" fill="#005CFF"/>
<path d="M126.977 24.9609H127.648V28.4666H126.977V27.0174H125.673V28.4666H125.002V24.9609H125.673V26.3535H126.945L126.977 24.9609Z" fill="#005CFF"/>
<path d="M131.203 28.4666V26.3292L129.742 28.4666H129.229V24.9609H129.9V27.1064L131.361 24.9609H131.875V28.4666H131.203Z" fill="#005CFF"/>
<path d="M135.942 24.961V28.4666H135.271V27.2522H134.884L134.094 28.4666H133.304L134.141 27.1712C133.929 27.0951 133.744 26.9538 133.612 26.7664C133.476 26.5798 133.403 26.352 133.407 26.1187C133.407 25.966 133.436 25.8148 133.494 25.6738C133.551 25.5328 133.635 25.4048 133.74 25.2972C133.846 25.1896 133.972 25.1045 134.11 25.0468C134.248 24.989 134.395 24.9599 134.544 24.961H135.942ZM134.576 26.645H135.271V25.6087H134.576C134.514 25.6087 134.452 25.6216 134.395 25.6466C134.338 25.6717 134.287 25.7083 134.244 25.7544C134.157 25.8563 134.109 25.9872 134.109 26.1228C134.109 26.2583 134.157 26.3892 134.244 26.4911C134.286 26.5373 134.336 26.5747 134.391 26.6011C134.447 26.6275 134.507 26.6424 134.568 26.645H134.576Z" fill="#005CFF"/>
<path d="M54.4997 16.7346V19.0663H44.9819V6.46045H54.2707V8.79217H47.8096V11.5287H53.5124V13.7956H47.8096V16.7184L54.4997 16.7346Z" fill="#005CFF"/>
<path d="M59.3975 6.46045H62.2409V16.6779H68.4018V19.0501H59.3975V6.46045Z" fill="#005CFF"/>
<path d="M82.145 16.7346V19.0663H72.6667V6.46045H81.916V8.79217H75.4549V11.5287H81.1656V13.7956H75.4549V16.7184L82.145 16.7346Z" fill="#005CFF"/>
<path d="M98.2261 19.0663V11.5125L94.6086 17.7385H93.2895L89.6878 11.6744V19.0663H87.0181V6.46045H89.3876L93.9925 14.2814L98.5184 6.46045H100.888V19.0501L98.2261 19.0663Z" fill="#005CFF"/>
<path d="M115.959 16.7346V19.0663H106.481V6.46045H115.762V8.79217H109.3V11.5287H115.011V13.7956H109.3V16.7184L115.959 16.7346Z" fill="#005CFF"/>
<path d="M132.135 6.46045V19.0501H129.766L123.636 11.4072V19.0501H120.856V6.46045H123.226L129.339 14.1033V6.46045H132.135Z" fill="#005CFF"/>
<path d="M140.223 8.88932H136.274V6.46045H147V8.88932H143.051V19.1068H140.207L140.223 8.88932Z" fill="#005CFF"/>
<path d="M25.3307 0H8.81478C3.9465 0 0 4.04528 0 9.03539V25.9646C0 30.9547 3.9465 35 8.81478 35H25.3307C30.199 35 34.1455 30.9547 34.1455 25.9646V9.03539C34.1455 4.04528 30.199 0 25.3307 0Z" fill="#005CFF"/>
<path d="M11.4767 22.2648H9.89697V11.4482C9.89697 10.7203 10.1791 10.0222 10.6812 9.5075C11.1834 8.99279 11.8644 8.70361 12.5746 8.70361H23.8537V11.6749C23.8537 12.3921 23.5758 13.0799 23.081 13.587C22.5863 14.0942 21.9153 14.3791 21.2156 14.3791H14.8968V12.7598H21.2156C21.3542 12.7609 21.4917 12.7338 21.6201 12.6802C21.7484 12.6266 21.8652 12.5474 21.9635 12.4473C22.0619 12.3472 22.14 12.2282 22.1933 12.097C22.2466 11.9658 22.274 11.8251 22.274 11.683V10.331H12.5746C12.2834 10.331 12.0041 10.4495 11.7982 10.6606C11.5923 10.8716 11.4767 11.1579 11.4767 11.4564V22.2648Z" fill="white"/>
<path d="M11.6734 22.4672H9.69873V11.4483C9.69873 10.6659 10.0014 9.9155 10.5403 9.36154C11.0793 8.80758 11.8106 8.49531 12.5738 8.49316H24.0504V11.675C24.0504 12.4458 23.7517 13.1851 23.2199 13.7302C22.6881 14.2753 21.9669 14.5815 21.2148 14.5815H14.6985V12.5494H21.2148C21.3275 12.5504 21.4393 12.5286 21.5437 12.4851C21.6481 12.4417 21.7431 12.3775 21.8231 12.2962C21.9032 12.2149 21.9667 12.1181 22.0101 12.0115C22.0534 11.9049 22.0758 11.7905 22.0758 11.675V10.5091H12.5975C12.3587 10.5091 12.1297 10.6064 11.9608 10.7794C11.7919 10.9525 11.6971 11.1873 11.6971 11.4321L11.6734 22.4672ZM10.0937 22.0624H11.2784V11.4483C11.2805 11.0968 11.4176 10.7603 11.6601 10.5117C11.9026 10.2632 12.2309 10.1226 12.5738 10.1205H22.4707V11.675C22.4686 12.015 22.3354 12.3403 22.1001 12.58C21.8648 12.8197 21.5465 12.9542 21.2148 12.9542H15.0934V14.1767H21.2148C21.8621 14.1767 22.4829 13.9131 22.9406 13.444C23.3983 12.9748 23.6555 12.3385 23.6555 11.675V8.88987H12.5975C11.939 8.89201 11.3082 9.16166 10.8433 9.6397C10.3784 10.1177 10.1174 10.7652 10.1174 11.4402L10.0937 22.0624Z" fill="white"/>
<path d="M11.4767 12.7427H9.89697V23.5592C9.89697 24.2879 10.1788 24.9868 10.6807 25.5028C11.1827 26.0188 11.8637 26.3098 12.5746 26.3119H23.8537V23.3325C23.8537 22.6153 23.5758 21.9275 23.081 21.4204C22.5863 20.9133 21.9153 20.6284 21.2156 20.6284H14.8968V22.2476H21.2156C21.3542 22.2466 21.4917 22.2736 21.6201 22.3273C21.7484 22.3809 21.8652 22.46 21.9635 22.5601C22.0619 22.6602 22.14 22.7793 22.1933 22.9105C22.2466 23.0417 22.274 23.1823 22.274 23.3244V24.6765H12.5746C12.2834 24.6765 12.0041 24.5579 11.7982 24.3469C11.5923 24.1358 11.4767 23.8496 11.4767 23.5511V12.7427Z" fill="white"/>
<path d="M24.0504 26.5151H12.5738C11.8106 26.5129 11.0793 26.2007 10.5403 25.6467C10.0014 25.0927 9.69873 24.3423 9.69873 23.56V12.541H11.6734V23.56C11.6734 23.8048 11.7682 24.0395 11.9371 24.2126C12.106 24.3857 12.335 24.483 12.5738 24.483H22.0521V23.3333C22.0521 23.2178 22.0297 23.1034 21.9864 22.9968C21.943 22.8902 21.8795 22.7934 21.7994 22.7121C21.7194 22.6308 21.6244 22.5666 21.52 22.5231C21.4156 22.4796 21.3038 22.4578 21.1911 22.4589H14.6985V20.4267H21.2148C21.9669 20.4267 22.6881 20.733 23.2199 21.278C23.7517 21.8231 24.0504 22.5624 24.0504 23.3333V26.5151ZM10.0937 12.9377V23.5519C10.0937 24.2268 10.3547 24.8743 10.8196 25.3524C11.2845 25.8304 11.9153 26.1001 12.5738 26.1022H23.6318V23.3252C23.6318 22.6617 23.3747 22.0254 22.9169 21.5562C22.4592 21.087 21.8384 20.8234 21.1911 20.8234H15.0934V22.046H21.2148C21.5465 22.046 21.8648 22.1805 22.1001 22.4202C22.3354 22.6598 22.4686 22.9852 22.4707 23.3252V24.8797H12.5738C12.2309 24.8775 11.9026 24.737 11.6601 24.4884C11.4176 24.2399 11.2805 23.9034 11.2784 23.5519V12.9377H10.0937Z" fill="white"/>
<path d="M10.094 16.7104H19.8329C20.0424 16.7104 20.2433 16.7957 20.3914 16.9476C20.5395 17.0994 20.6228 17.3053 20.6228 17.5201C20.6228 17.7348 20.5395 17.9407 20.3914 18.0926C20.2433 18.2444 20.0424 18.3297 19.8329 18.3297H10.094V16.7104Z" fill="white"/>
<path d="M19.8334 18.5077H9.89697V16.508H19.8334C19.9688 16.4954 20.1054 16.512 20.2343 16.5566C20.3632 16.6011 20.4816 16.6727 20.582 16.7668C20.6824 16.8609 20.7626 16.9753 20.8174 17.1029C20.8723 17.2305 20.9007 17.3684 20.9007 17.5078C20.9007 17.6473 20.8723 17.7852 20.8174 17.9128C20.7626 18.0403 20.6824 18.1548 20.582 18.2489C20.4816 18.343 20.3632 18.4145 20.2343 18.4591C20.1054 18.5037 19.9688 18.5202 19.8334 18.5077ZM10.3077 18.1029H19.8334C19.9153 18.1127 19.9983 18.1046 20.077 18.0792C20.1556 18.0538 20.2282 18.0116 20.2898 17.9554C20.3514 17.8992 20.4007 17.8302 20.4344 17.7531C20.4682 17.676 20.4857 17.5924 20.4857 17.5078C20.4857 17.4233 20.4682 17.3397 20.4344 17.2626C20.4007 17.1854 20.3514 17.1165 20.2898 17.0603C20.2282 17.0041 20.1556 16.9619 20.077 16.9365C19.9983 16.911 19.9153 16.903 19.8334 16.9128H10.2919L10.3077 18.1029Z" fill="white"/>
</svg>
